<svg width="511.5" height="512.049131" xmlns="http://www.w3.org/2000/svg" preserveAspectRatio="xMidYMid meet" version="1.0">
  <metadata>Created by potrace 1.12, written by Peter Selinger 2001-2015</metadata>

  <g>
    <title>Layer 1</title>
    <rect id="svg_4" height="150" width="202" y="307.54933" x="181.88876" stroke="#000" fill="#ffc500" />
    <g id="svg_1" fill="#000000" transform="translate(0.000000,512.000000) scale(0.100000,-0.100000)">
      <path id="svg_2" d="m196,5098c-66,-29 -146,-110 -174,-175l-22,-52l0,-2311l0,-2311l22,-52c25,-59 104,-142 163,-172c40,-20 63,-20 2355,-23l2315,-2l57,20c68,25 153,104 183,170c20,44 20,70 20,2370c0,2304 0,2326 -20,2370c-27,60 -110,141 -173,168l-51,22l-2313,0l-2313,-1l-49,-21zm4112,-1085l-3,-188l-1517,-3l-1518,-2l0,-465l0,-465l1345,0l1345,0l0,-185l0,-185l-1345,0l-1345,0l0,-655l0,-655l-185,0l-185,0l0,1495l0,1495l1705,0l1705,0l-2,-187zm-2088,-2053c0,-6 -7,-13 -16,-17c-19,-7 -68,-111 -85,-183c-7,-30 -16,-57 -20,-60c-15,-11 -31,-215 -31,-395c0,-196 16,-397 33,-403c5,-2 9,-13 9,-25c0,-56 67,-220 99,-244c11,-9 12,-12 3,-13c-22,0 -62,32 -78,61c-8,16 -23,36 -33,46c-31,28 -91,212 -91,276c0,14 -6,27 -12,29c-17,6 -19,535 -2,546c6,4 14,31 18,61c9,68 62,208 87,229c11,9 19,22 19,28c0,15 70,74 87,74c7,0 13,-5 13,-10zm1173,-27c24,-21 54,-55 66,-76c24,-41 61,-149 61,-177c0,-10 4,-20 10,-22c32,-11 47,-437 21,-620c-7,-54 -17,-98 -21,-98c-4,0 -11,-17 -15,-37c-10,-55 -60,-169 -87,-200c-60,-68 -78,-83 -95,-83c-16,1 -16,2 -2,10c21,12 64,93 79,151c7,24 16,46 20,49c5,3 17,57 27,120c35,222 16,794 -27,808c-5,2 -10,10 -10,18c0,29 -52,140 -76,161c-54,49 -9,45 49,-4zm-668,-323c-3,-5 -28,-10 -56,-10c-57,0 -61,-10 -26,-68c12,-20 31,-54 42,-74c11,-21 23,-38 27,-38c4,0 19,-21 32,-47c44,-83 42,-82 76,-43c16,19 30,38 30,42c0,8 50,90 77,127c10,13 30,44 44,70c24,43 28,46 72,49c28,2 47,-1 47,-7c0,-6 -9,-11 -20,-11c-26,0 -62,-39 -107,-115c-19,-32 -40,-64 -47,-70c-7,-5 -30,-39 -51,-75c-21,-36 -43,-68 -48,-71c-6,-4 -1,-17 11,-29c12,-13 28,-37 36,-54c8,-18 25,-43 38,-57c21,-22 58,-79 99,-149c24,-41 52,-59 92,-60c20,0 37,-4 37,-10c0,-6 -61,-10 -162,-10c-163,0 -191,6 -97,21c60,9 71,17 46,30c-9,6 -17,15 -17,20c0,6 -13,29 -29,52c-15,23 -31,52 -35,65c-4,12 -12,22 -17,22c-5,0 -23,25 -41,56c-29,52 -32,55 -44,38c-7,-11 -17,-23 -21,-29c-15,-19 -59,-90 -78,-127c-11,-21 -23,-38 -26,-38c-4,0 -21,-25 -38,-55l-31,-55l-70,0c-40,0 -70,4 -70,10c0,6 22,10 48,10c58,0 68,8 113,84c19,32 40,60 47,63c6,3 12,9 12,15c0,5 14,29 30,53c17,24 30,48 30,53c0,5 11,21 25,35c22,21 24,27 12,39c-8,7 -33,46 -57,86c-24,40 -46,72 -50,72c-4,0 -19,23 -35,52c-15,28 -41,65 -57,81c-15,17 -28,34 -28,38c0,5 -13,9 -30,9c-16,0 -30,5 -30,10c0,6 57,10 151,10c97,0 148,-4 144,-10z" />
    </g>
  </g>
</svg>